<svg width="41" height="49" viewBox="0 0 41 49" fill="none" xmlns="http://www.w3.org/2000/svg">
    <path d="M19.1535 47.617C19.0684 47.1715 18.8187 46.7809 18.6061 46.3872C18.3846 45.9996 18.1672 45.6056 17.8656 45.2743C17.501 44.8809 16.9902 44.6621 16.5154 44.4245C15.9028 44.1103 15.2594 43.8526 14.6224 43.5925C12.641 42.7032 10.6449 41.8085 8.84255 40.5818C7.43836 39.7187 6.30382 38.5009 5.2059 37.2925C4.15073 36.1422 3.50494 34.6571 2.89476 33.2313C2.19301 31.7387 2.16112 30.0572 2.19504 28.4331C2.19029 27.8008 2.20589 27.1644 2.26864 26.5383C2.34428 25.753 2.41415 24.9087 2.77503 24.2123C2.96599 23.7511 3.42998 23.6448 3.90211 23.656C4.32269 23.6468 4.79889 23.6591 5.22524 23.6513C5.6777 23.6495 6.09692 23.5746 6.54022 23.5391C7.4292 23.5238 8.40908 23.445 9.31196 23.3339C10.4848 23.2661 11.752 23.3401 12.9201 23.1659C14.2568 23.111 15.7217 23.171 17.0832 23.1038C19.3122 23.066 21.5945 23.0316 23.8389 23.1202C25.0297 23.2208 26.2945 23.1618 27.4745 23.1621C27.9758 23.1601 32.4193 23.3891 33.2272 23.4167C33.8473 23.4297 34.4022 23.5275 34.9991 23.5401C35.7161 23.5841 37.5775 23.4645 37.9649 24.0286C38.1968 24.3769 38.2372 24.8187 38.3274 25.2257C38.4095 25.6909 38.5275 26.0645 38.5893 26.5144C38.6669 27.9917 38.6676 29.5317 38.4797 31.0045C38.2993 33.3976 37.086 35.5699 35.6008 37.3945C33.5705 39.9399 30.9867 41.573 28.0663 42.9149C27.2147 43.2827 26.3657 43.6702 25.4978 43.9992C24.3815 44.429 23.2497 44.973 22.5819 46.0109C22.2644 46.4925 21.9707 47.0058 21.8374 47.5737C21.7543 47.8934 21.8025 48.2581 21.7272 48.5683C21.5647 49.0175 20.8592 48.8314 20.3905 48.8771C18.4677 48.8614 19.2597 48.9027 19.1542 47.6217L19.1535 47.617Z" fill="black" fill-opacity="0.3"/>
    <path d="M18.9351 7.37007C18.837 6.88435 18.5877 6.46647 18.3239 6.05335C17.9226 5.44016 17.4668 4.82185 16.8342 4.44453C16.394 4.15957 15.8421 4.03209 15.4439 3.68715C14.8616 3.16905 15.1916 2.28999 15.66 1.81416C16.3275 1.15018 17.4556 0.81819 18.3812 0.888065C19.0277 0.952145 19.3183 1.25107 19.7131 1.72315C20.2463 2.30056 20.6245 3.06918 20.9257 3.80849C21.2177 4.41998 21.4511 5.03045 21.5908 5.69512C21.7021 6.20503 22.0724 7.60185 21.716 7.98804C21.3608 8.40047 19.9926 7.99042 19.3221 8.4233C19.0741 8.57328 18.8862 8.78904 18.6678 8.98537C18.158 9.46291 17.6323 10.0267 17.1222 10.5097C16.8905 10.7169 16.6982 10.9408 16.4414 11.1021C15.9076 11.4303 15.4812 10.7912 15.121 10.4773C14.8826 10.2465 14.6625 10.0165 14.441 9.77206C14.1869 9.49597 13.8332 9.09717 14.3969 8.92299C14.812 8.80097 15.2825 8.77677 15.7126 8.6919C16.2803 8.60566 16.8423 8.50306 17.4054 8.41649C17.71 8.36672 18.0539 8.3582 18.3534 8.28526C18.813 8.16016 19.0541 7.85544 18.9361 7.3762L18.9351 7.37007Z" fill="black" fill-opacity="0.3"/>
    <path d="M25.1376 12.6141C25.3122 12.6666 25.5025 12.8009 25.6521 12.927C25.8838 13.124 26.112 13.3309 26.3087 13.516C26.7527 13.9363 27.1926 14.3177 27.6251 14.7574C27.8364 14.9735 28.0392 15.1892 28.2437 15.405C28.4415 15.6218 28.7254 15.8645 28.7135 16.1583C28.6881 16.4756 28.3658 16.703 28.1657 16.9368C27.8377 17.2892 27.4962 17.6526 27.1482 17.9795C26.7134 18.3827 26.2959 18.7948 25.8637 19.2079C25.6124 19.4315 25.3472 19.7778 24.9839 19.7618C24.6135 19.7318 24.3524 19.3793 24.0851 19.1493C23.6791 18.7672 23.2182 18.3428 22.8095 17.9536C22.433 17.5963 22.0646 17.2422 21.6837 16.8874C21.4857 16.6897 21.2164 16.4824 21.2052 16.1835C21.2052 16.0305 21.3201 15.8815 21.4344 15.7683C21.5525 15.6501 21.6817 15.5263 21.8065 15.4067C22.1772 15.0519 22.5201 14.6878 22.8868 14.3129C23.2528 13.9383 23.6421 13.5702 24.0118 13.2167C24.3347 12.9338 24.6519 12.4624 25.1328 12.6124L25.1376 12.6141Z" fill="black" fill-opacity="0.3"/>
    <path d="M16.126 12.6066C16.3756 12.6489 16.6002 12.8537 16.7871 13.031C17.3253 13.5525 17.8707 14.0603 18.4107 14.5757C18.6535 14.8088 18.8994 15.044 19.1409 15.2779C19.4014 15.5461 19.7833 15.8307 19.7854 16.237C19.7837 16.5462 19.5164 16.7814 19.3044 16.9845C18.9323 17.3376 18.5579 17.6891 18.1899 18.0333C17.8131 18.3861 17.4237 18.7477 17.0431 19.1067C16.7589 19.3466 16.4458 19.7751 16.0585 19.7642C15.6413 19.7284 15.2889 19.2686 14.9932 18.9928C14.6794 18.6837 14.3491 18.3793 14.0336 18.0746C13.6856 17.7395 13.3312 17.4157 13.0002 17.0643C12.7448 16.7739 12.3384 16.4589 12.3815 16.0376C12.45 15.6739 12.7912 15.3941 13.0473 15.1384C13.3397 14.8617 13.6158 14.603 13.9014 14.3323C14.3698 13.8892 14.8477 13.4434 15.3205 13.0033C15.5406 12.8016 15.8062 12.5504 16.1209 12.6056L16.126 12.6066Z" fill="black" fill-opacity="0.3"/>
    <path d="M20.5194 8.34627C20.8874 8.36468 21.2347 8.81699 21.5182 9.05968C21.8543 9.38076 22.2145 9.72434 22.5415 10.04C22.838 10.3222 23.1144 10.5884 23.3956 10.8597C23.6869 11.1638 24.1933 11.5182 24.2092 11.9668C24.1909 12.4028 23.7073 12.7191 23.4291 13.0197C23.0971 13.3408 22.7555 13.7103 22.4252 14.0532C22.1101 14.3818 21.7797 14.6878 21.4538 15.0007C21.178 15.2349 20.8863 15.6712 20.4915 15.6323C20.1547 15.5822 19.9149 15.255 19.6704 15.0386C19.2376 14.6272 18.8197 14.2243 18.3897 13.8118C18.1051 13.5334 17.792 13.2416 17.5024 12.9481C17.2426 12.6622 16.8247 12.353 16.8322 11.9416C16.8474 11.6928 17.0618 11.4681 17.2327 11.2858C17.5193 10.9875 17.807 10.6763 18.1031 10.3835C18.547 9.9551 18.9842 9.54505 19.4258 9.11626C19.59 8.95674 19.7515 8.80369 19.9173 8.65202C20.0883 8.50136 20.2809 8.34184 20.5156 8.34661L20.5194 8.34627Z" fill="black" fill-opacity="0.3"/>
    <path d="M33.4243 12.0394C33.6427 12.0496 33.8605 12.2596 34.0216 12.4137C34.2003 12.5882 34.3842 12.7777 34.5473 12.9556C34.8719 13.3231 35.2338 13.6568 35.5791 14.0041C35.8128 14.2389 36.0316 14.4929 36.2598 14.7281C36.4989 14.9834 36.8344 15.2397 36.853 15.6153C36.871 15.9381 36.6326 16.2207 36.4609 16.478C36.1506 16.9371 35.8152 17.3738 35.4777 17.8169C35.2043 18.1812 34.9187 18.5316 34.6341 18.8694C34.3543 19.1677 34.0881 19.6483 33.6485 19.6858C33.309 19.6885 33.0444 19.3586 32.8175 19.1281C32.7229 19.0272 32.6232 18.924 32.534 18.8268C32.2318 18.4948 31.8984 18.1877 31.5707 17.8782C31.24 17.5745 30.9266 17.2528 30.6139 16.9313C30.3985 16.6856 29.9464 16.3672 29.9905 16.0189C30.0149 15.8311 30.174 15.6497 30.2988 15.5021C30.697 15.0413 31.085 14.6149 31.4693 14.1582C31.8604 13.6895 32.2525 13.23 32.6191 12.7433C32.8396 12.488 33.0458 12.0476 33.4196 12.0391L33.4243 12.0394Z" fill="black" fill-opacity="0.3"/>
    <path d="M7.82739 12.1355C7.97358 12.2058 8.09263 12.3683 8.18455 12.5074C8.35278 12.7283 8.5071 12.9546 8.67805 13.1707C9.04164 13.6401 9.44119 14.0859 9.8265 14.5379C10.0595 14.8187 10.2854 15.0849 10.5303 15.3505C10.686 15.5475 10.9461 15.7833 11.0068 16.04C11.0675 16.3297 10.6924 16.5547 10.5188 16.7408C10.264 16.9743 10.0168 17.2214 9.76205 17.4573C9.48257 17.7303 9.17087 18.0139 8.89953 18.292C8.76555 18.4335 8.64209 18.5872 8.50608 18.7263C8.33277 18.9083 8.14045 19.0818 7.9634 19.2607C7.81586 19.4018 7.6673 19.577 7.47397 19.6449C7.24944 19.7335 7.07544 19.5048 6.93197 19.3422C6.8448 19.244 6.75526 19.1329 6.66945 19.0286C6.26413 18.546 5.89104 18.1076 5.52134 17.6028C5.25508 17.2381 5.00647 16.8788 4.73275 16.5179C4.64321 16.3904 4.5574 16.2575 4.47159 16.1279C4.36678 15.9674 4.2518 15.7711 4.2691 15.5768C4.29149 15.2969 4.54756 15.1347 4.7063 14.9295C4.99019 14.5784 5.308 14.2751 5.62818 13.956C6.04367 13.5467 6.4483 13.0794 6.87499 12.684C7.11648 12.4856 7.47499 11.9607 7.82264 12.1335L7.82739 12.1355Z" fill="black" fill-opacity="0.3"/>
    <path d="M28.8916 9.1892C29.5899 9.33918 30.2564 9.61936 30.9032 9.90874C31.3502 10.0966 31.7939 10.3348 32.1354 10.6927C32.3562 10.9071 32.5896 11.1835 32.5794 11.5022C32.5801 11.7848 32.3807 12.0537 32.2077 12.2801C32.0245 12.5142 31.8312 12.7613 31.6443 12.9918C31.2146 13.5317 30.8045 14.0276 30.3531 14.5645C30.232 14.7114 30.1014 14.8617 29.9756 14.9984C29.8056 15.1858 29.6286 15.3934 29.3745 15.4033C29.0896 15.4006 28.8553 15.1736 28.649 14.9902C27.9771 14.3732 27.3398 13.7355 26.6506 13.1404C26.4261 12.9495 26.1904 12.7538 25.9719 12.5619C25.6921 12.3179 25.4262 11.9675 25.6809 11.6154C25.8278 11.3911 26.032 11.1985 26.2111 10.9957C26.4146 10.767 26.6116 10.5431 26.8165 10.3219C27.4507 9.63299 27.8031 8.95026 28.8861 9.18784L28.8916 9.1892Z" fill="black" fill-opacity="0.3"/>
    <path d="M12.9981 9.08047C13.3746 9.18647 13.6036 9.54028 13.8512 9.82182C14.0262 10.0229 14.1927 10.221 14.3633 10.4183C14.5743 10.6651 14.792 10.8894 15.0111 11.1235C15.2177 11.3604 15.5382 11.6099 15.5196 11.9494C15.4982 12.1822 15.2852 12.3844 15.1146 12.5473C14.8873 12.7586 14.6574 12.9785 14.4271 13.1901C13.9977 13.5845 13.5612 13.9993 13.1358 14.4015C12.9333 14.591 12.7475 14.7632 12.5355 14.9626C12.2977 15.1988 11.9748 15.4558 11.6265 15.3917C11.2358 15.3256 10.9108 14.8307 10.6442 14.545C10.1484 13.9724 9.71626 13.4529 9.26211 12.8708C9.16103 12.747 9.05928 12.6216 8.95922 12.4914C8.78692 12.2691 8.59054 12.0432 8.48031 11.7828C8.29546 11.3751 8.51117 11.0059 8.80795 10.7193C9.12847 10.3832 9.51954 10.1443 9.95877 9.96669C10.4709 9.76695 10.9872 9.57709 11.4973 9.37019C11.9609 9.20318 12.5063 8.94379 12.9934 9.07876L12.9981 9.08047Z" fill="black" fill-opacity="0.3"/>
    <path d="M29.3793 16.7756C29.6998 16.8066 30.0997 17.2787 30.3476 17.4907C30.7726 17.9007 31.2088 18.3053 31.6101 18.7406C31.9333 19.1039 32.302 19.4369 32.6378 19.7747C33.2113 20.3869 33.2235 20.5175 32.6367 21.1392C32.1846 21.6665 31.9618 21.8328 31.2468 21.7438C31.0107 21.719 30.776 21.6958 30.5362 21.6954C29.5017 21.6988 28.4656 21.7299 27.4317 21.6907C26.6581 21.6573 26.4519 21.4701 25.937 20.9214C25.7023 20.6681 25.6304 20.4394 25.8675 20.1579C26.1378 19.8286 26.4485 19.4922 26.7592 19.198C27.0308 18.9444 27.2778 18.6881 27.5321 18.4086C27.8262 18.078 28.1559 17.7702 28.4717 17.4699C28.6022 17.3475 28.7277 17.2214 28.8417 17.0929C28.9818 16.9399 29.1554 16.765 29.3745 16.7759L29.3793 16.7756Z" fill="black" fill-opacity="0.3"/>
    <path d="M37.5806 16.3897C37.9021 16.4644 38.0958 16.7947 38.3047 17.0319C38.5024 17.2661 38.6931 17.5244 38.8783 17.7576C39.369 18.3987 39.872 19.0593 40.2882 19.757C40.5884 20.257 40.5758 20.8597 40.2099 21.327C39.9324 21.6545 39.6448 21.9269 39.1883 22.0175C38.8827 22.0751 38.5659 22.0765 38.2538 22.0714C37.7729 22.0591 37.3272 21.9981 36.854 21.9688C36.4504 21.9388 36.0024 21.9685 35.6269 21.8986C35.3481 21.8543 35.1117 21.6968 34.9394 21.4766C34.7179 21.2067 34.4398 20.8893 34.3944 20.5263C34.3414 20.1763 34.5616 19.8756 34.7759 19.6241C34.9726 19.3824 35.1728 19.1506 35.3769 18.8981C35.7249 18.4553 36.0736 18.0258 36.4091 17.5783C36.5688 17.3646 36.7255 17.1474 36.8808 16.9303C37.0623 16.6992 37.2536 16.3464 37.5765 16.3887L37.5806 16.3897Z" fill="black" fill-opacity="0.3"/>
    <path d="M11.7299 16.8577C12.0891 16.9007 12.3428 17.2831 12.6179 17.5483C12.8733 17.8189 13.1274 18.0504 13.3743 18.2869C13.8813 18.7644 14.4383 19.3596 14.926 19.8814C15.4666 20.4251 15.3001 20.7942 14.7547 21.2435C14.3338 21.5877 13.747 21.5857 13.2233 21.6276C12.6166 21.6668 12.0433 21.7104 11.4535 21.7077C11.0292 21.7118 10.5917 21.7186 10.1518 21.7196C9.76985 21.719 9.28042 21.7244 8.95854 21.556C8.6309 21.3771 8.24322 20.9544 8.14995 20.5849C8.04887 20.1892 8.35583 19.8555 8.61394 19.5787C9.07047 19.0883 9.55753 18.5899 10.05 18.1369C10.2596 17.9389 10.4709 17.7412 10.6792 17.5428C10.9695 17.2916 11.3121 16.8274 11.7255 16.857L11.7299 16.8577Z" fill="black" fill-opacity="0.3"/>
    <path d="M3.65112 16.4272C3.99674 16.5697 4.18634 16.9484 4.41461 17.2286C4.75344 17.6771 5.076 18.1103 5.42298 18.561C5.65667 18.8551 5.8907 19.1503 6.12643 19.4291C6.6864 20.1112 7.03372 20.3801 6.35028 21.1705C6.01144 21.6375 5.54813 21.8792 4.96577 21.9374C4.38611 22.0032 3.78577 21.9804 3.20137 21.9756C2.25711 21.9811 1.46106 22.1863 0.803062 21.3447C0.416062 20.888 0.396051 20.3678 0.764057 19.8886C1.17039 19.3773 1.50753 18.7951 1.87316 18.2569C2.12517 17.8813 2.38735 17.4961 2.66344 17.1355C2.90934 16.841 3.2146 16.3008 3.64705 16.4259L3.65112 16.4272Z" fill="black" fill-opacity="0.3"/>
    <path d="M20.5387 16.9572C20.7971 16.9644 21.1041 17.2316 21.3215 17.4191C21.9022 17.9072 22.4384 18.4192 22.9984 18.9315C23.1968 19.1138 23.3959 19.2975 23.5953 19.4802C23.926 19.8075 24.5525 20.2233 24.2306 20.7291C24.1489 20.8617 24.0244 20.9814 23.9101 21.0891C23.6615 21.3294 23.4227 21.5393 23.0655 21.5472C21.9256 21.5761 19.9468 21.5523 18.5725 21.5628C17.7652 21.5731 17.6286 21.5472 17.0591 20.964C16.5842 20.4578 16.7694 20.1248 17.248 19.7038C17.7652 19.2236 18.3005 18.731 18.8201 18.2562C19.1331 17.9699 19.4404 17.6829 19.7572 17.3969C19.9777 17.1996 20.2199 16.9382 20.5343 16.9569L20.5387 16.9572Z" fill="black" fill-opacity="0.3"/>
    <path d="M26.9752 8.8763C27.1587 9.09819 26.8928 9.42541 26.7337 9.6122C26.5356 9.84125 26.3186 10.0775 26.1005 10.3031C25.8827 10.5284 25.6938 10.7261 25.4737 10.9306C25.1674 11.221 24.8455 11.3195 24.5091 11.083C24.2957 10.9385 24.1231 10.7363 23.9294 10.5628C23.6194 10.2748 23.3287 9.99975 23.0228 9.71514C22.8458 9.54982 22.6782 9.38996 22.5028 9.22397C22.3058 9.01911 21.9232 8.71985 22.0002 8.41887C22.1823 7.93759 23.7954 8.25867 24.2445 8.31184C24.9174 8.40626 25.6049 8.49454 26.264 8.59748C26.4932 8.63497 26.8436 8.70212 26.9725 8.87357L26.9752 8.8763Z" fill="black" fill-opacity="0.3"/>
    <path d="M38.0805 14.9145C38.302 14.9411 38.4539 15.1872 38.5879 15.3607C38.7141 15.5338 38.8433 15.7131 38.9807 15.8791C39.4203 16.3948 39.7937 16.9681 40.0779 17.5895C40.138 17.7071 40.4185 18.2924 40.298 18.3353C40.2679 18.338 40.216 18.2954 40.1461 18.2259C40.0474 18.1226 39.9416 17.9842 39.8534 17.8622C39.5542 17.4563 39.2534 17.0888 38.9268 16.6979C38.7575 16.4988 38.5889 16.2902 38.4194 16.0915C38.2728 15.9149 38.1039 15.7428 37.9944 15.555C37.8675 15.358 37.7881 14.9302 38.0781 14.9145H38.0805Z" fill="black" fill-opacity="0.3"/>
    <path d="M3.02331 14.9281C3.17153 14.997 3.15423 15.209 3.10505 15.3638C2.97311 15.7578 2.65293 16.0673 2.39414 16.3856C2.12042 16.7054 1.85213 17.0346 1.57842 17.3683C1.40476 17.5837 1.20397 17.8496 1.01166 18.0306C0.585991 18.4065 0.963154 17.6345 1.04897 17.4944C1.32505 17.0026 1.61471 16.5087 1.90912 16.0294C2.11296 15.7326 2.61596 14.7959 3.02059 14.9275L3.02331 14.9281Z" fill="black" fill-opacity="0.3"/>
    <path d="M35.1188 12.3373C35.3824 12.4034 35.6571 12.6083 35.883 12.7671C36.3046 13.0773 36.7004 13.4192 37.1054 13.7519C37.3062 13.9175 37.526 14.1762 37.5392 14.4329C37.5538 14.6592 37.3821 14.7069 37.1864 14.6207C36.9239 14.4919 36.7323 14.2488 36.5203 14.0491C36.4277 13.9455 34.6721 12.2944 35.1161 12.3366L35.1188 12.3373Z" fill="black" fill-opacity="0.3"/>
    <path d="M6.3011 12.1093C6.39471 12.2374 5.64683 12.8708 5.52676 13.0016C5.39177 13.1325 5.2561 13.2661 5.12213 13.3953C4.77515 13.7297 4.45022 14.1292 4.09646 14.4659C3.94417 14.5921 3.72506 14.7635 3.54937 14.6449C3.40692 14.5137 3.53987 14.2362 3.6674 14.092C3.84547 13.8882 4.07679 13.7171 4.2786 13.5306C4.53603 13.3047 4.7955 13.0613 5.0604 12.8554C5.24898 12.7065 6.10608 12.0445 6.30042 12.1083L6.3011 12.1093Z" fill="black" fill-opacity="0.3"/>
    <path d="M33.6862 21.1545C33.8978 21.1869 34.2109 21.3352 34.2516 21.5628C34.2638 21.8788 33.4287 21.8192 33.2476 21.7231C33.0522 21.6518 32.9956 21.4766 33.154 21.3249C33.2815 21.1971 33.5006 21.1293 33.6804 21.1538L33.6862 21.1545Z" fill="black" fill-opacity="0.3"/>
    <path d="M6.94452 21.6801C6.74712 21.4902 7.04322 21.2639 7.24537 21.2036C7.35729 21.1688 7.47838 21.161 7.59167 21.1934C7.78907 21.2503 7.96408 21.4006 7.90371 21.5642C7.77075 21.8226 7.15141 21.8478 6.94859 21.6828L6.94452 21.6801Z" fill="black" fill-opacity="0.3"/>
    <path d="M24.5522 21.4391C24.5209 21.4057 24.5335 21.3706 24.5661 21.3246C24.6251 21.2428 24.759 21.1487 24.8801 21.1399C24.9704 21.1289 25.064 21.1491 25.1494 21.1811C25.3099 21.2387 25.5836 21.4364 25.3228 21.4858C25.1301 21.5213 24.7048 21.5434 24.5545 21.4415L24.5522 21.4391Z" fill="black" fill-opacity="0.3"/>
    <path d="M15.6413 21.4422C15.5796 21.3815 15.74 21.2537 15.7916 21.2094C15.8879 21.1351 15.9951 21.1017 16.1104 21.131C16.2379 21.1627 16.3811 21.253 16.4204 21.3699C16.4506 21.5499 15.719 21.5216 15.6437 21.4446L15.6413 21.4422Z" fill="black" fill-opacity="0.3"/>
</svg>
