<svg width="100%" height="100%" viewBox="0 0 18 18" fill="none" xmlns="http://www.w3.org/2000/svg">
    <g clip-path="url(#clip0_1362_4409)">
        <path fill-rule="evenodd" clip-rule="evenodd" d="M1.125 12.3714C1.59099 12.3714 1.96875 12.7492 1.96875 13.2152V15.75C1.96875 15.9054 2.09467 16.0313 2.25 16.0313H15.75C15.9053 16.0313 16.0312 15.9054 16.0312 15.75V13.2152C16.0312 12.7492 16.409 12.3714 16.875 12.3714C17.341 12.3714 17.7187 12.7492 17.7187 13.2152V15.75C17.7187 16.8373 16.8373 17.7188 15.75 17.7188H2.25C1.16269 17.7188 0.28125 16.8373 0.28125 15.75V13.2152C0.28125 12.7492 0.659014 12.3714 1.125 12.3714Z" fill="url(#paint0_linear_1362_4409)"/>
        <path fill-rule="evenodd" clip-rule="evenodd" d="M9.22764 0.28125C9.69361 0.28125 10.0714 0.659014 10.0714 1.125V10.2213C10.0714 10.6873 9.69361 11.0651 9.22764 11.0651C8.76166 11.0651 8.38389 10.6873 8.38389 10.2213V1.125C8.38389 0.659014 8.76166 0.28125 9.22764 0.28125Z" fill="url(#paint1_linear_1362_4409)"/>
        <path fill-rule="evenodd" clip-rule="evenodd" d="M4.86239 7.45381C5.18803 7.12047 5.72224 7.11417 6.05555 7.43986L9.22768 10.539L12.4 7.43986C12.7332 7.11417 13.2674 7.12047 13.593 7.45381C13.9187 7.78704 13.9125 8.3213 13.5792 8.64687L9.8174 12.3221C9.48947 12.6424 8.96589 12.6424 8.63807 12.3221L4.87629 8.64687C4.54296 8.3213 4.53674 7.78704 4.86239 7.45381Z" fill="url(#paint2_linear_1362_4409)"/>
    </g>
    <defs>
        <linearGradient id="paint0_linear_1362_4409" x1="8.99998" y1="0.28125" x2="8.99998" y2="17.7188" gradientUnits="userSpaceOnUse">
            <stop stop-color="#FFDE97"/>
            <stop offset="1" stop-color="#E7A343"/>
        </linearGradient>
        <linearGradient id="paint1_linear_1362_4409" x1="8.99998" y1="0.28125" x2="8.99998" y2="17.7188" gradientUnits="userSpaceOnUse">
            <stop stop-color="#FFDE97"/>
            <stop offset="1" stop-color="#E7A343"/>
        </linearGradient>
        <linearGradient id="paint2_linear_1362_4409" x1="8.99998" y1="0.28125" x2="8.99998" y2="17.7188" gradientUnits="userSpaceOnUse">
            <stop stop-color="#FFDE97"/>
            <stop offset="1" stop-color="#E7A343"/>
        </linearGradient>
        <clipPath id="clip0_1362_4409">
            <rect width="18" height="18" fill="white"/>
        </clipPath>
    </defs>
</svg>
