<svg width="100%" height="100%" viewBox="0 0 18 18" fill="none" xmlns="http://www.w3.org/2000/svg">
    <g clip-path="url(#clip0_1362_2957)">
        <path d="M9 5.40039V9.00039L11.25 11.2504" stroke="#3b92bb" stroke-width="1.6" stroke-linecap="round" stroke-linejoin="round"/>
        <path d="M2.10552 4.38308L1.43053 4.38648C1.43239 4.75662 1.73198 5.05621 2.10213 5.05807L2.10552 4.38308ZM4.39312 5.06958C4.76591 5.07147 5.06963 4.77078 5.0715 4.39799C5.07338 4.0252 4.7727 3.72147 4.39991 3.7196L4.39312 5.06958ZM2.769 2.08869C2.76713 1.71591 2.4634 1.41522 2.09061 1.4171C1.71783 1.41897 1.41714 1.72269 1.41902 2.09548L2.769 2.08869ZM1.64548 7.90602C1.69611 7.53666 1.43774 7.19626 1.06839 7.14563C0.699062 7.09501 0.35861 7.35333 0.307985 7.72269L1.64548 7.90602ZM15.1775 2.82361C11.7393 -0.614563 6.18339 -0.649384 2.76796 2.76604L3.72256 3.72064C6.60176 0.841438 11.3029 0.85817 14.223 3.7782L15.1775 2.82361ZM2.82553 15.1756C6.2637 18.6138 11.8197 18.6486 15.2351 15.2332L14.2805 14.2786C11.4013 17.1578 6.70015 17.1411 3.78012 14.2211L2.82553 15.1756ZM15.2351 15.2332C18.6505 11.8178 18.6157 6.26178 15.1775 2.82361L14.223 3.7782C17.143 6.69823 17.1597 11.3994 14.2805 14.2786L15.2351 15.2332ZM2.76796 2.76604L1.62822 3.90579L2.58282 4.86038L3.72256 3.72064L2.76796 2.76604ZM2.10213 5.05807L4.39312 5.06958L4.39991 3.7196L2.10891 3.70809L2.10213 5.05807ZM2.78051 4.37969L2.769 2.08869L1.41902 2.09548L1.43053 4.38648L2.78051 4.37969ZM0.307985 7.72269C-0.053302 10.3585 0.788063 13.1382 2.82553 15.1756L3.78012 14.2211C2.0516 12.4925 1.3395 10.1383 1.64548 7.90602L0.307985 7.72269Z" fill="url(#paint1_linear_1362_2957)"/>
    </g>
    <defs>
        <linearGradient id="paint0_linear_1362_2957" x1="10.125" y1="5.40039" x2="10.125" y2="11.2504" gradientUnits="userSpaceOnUse">
            <stop stop-color="#FFDE97"/>
            <stop offset="1" stop-color="#E7A343"/>
        </linearGradient>
        <linearGradient id="paint1_linear_1362_2957" x1="9.00154" y1="0.224609" x2="9.00154" y2="17.7746" gradientUnits="userSpaceOnUse">
            <stop stop-color="#FFDE97"/>
            <stop offset="1" stop-color="#E7A343"/>
        </linearGradient>
        <clipPath id="clip0_1362_2957">
            <rect width="18" height="18" fill="white"/>
        </clipPath>
    </defs>
</svg>
