<svg width="100%" height="100%" viewBox="0 0 19 18" fill="none" xmlns="http://www.w3.org/2000/svg">
    <g clip-path="url(#clip0_1362_5030)">
        <path fill-rule="evenodd" clip-rule="evenodd" d="M13.0355 16.875C13.0355 16.409 13.4132 16.0312 13.8792 16.0312H16.4141C16.5694 16.0312 16.6953 15.9053 16.6953 15.75V2.25004C16.6953 2.09468 16.5694 1.96879 16.4141 1.96879L13.8792 1.96879C13.4132 1.96879 13.0355 1.59102 13.0355 1.12504C13.0355 0.658957 13.4132 0.281294 13.8792 0.281294H16.4141C17.5014 0.281294 18.3828 1.16273 18.3828 2.25004V15.75C18.3828 16.8373 17.5014 17.7188 16.4141 17.7188H13.8792C13.4132 17.7188 13.0355 17.341 13.0355 16.875Z" fill="url(#paint0_linear_1362_5030)"/>
        <path fill-rule="evenodd" clip-rule="evenodd" d="M0.945313 8.77236C0.945313 8.30639 1.32308 7.92861 1.78906 7.92861H10.8854C11.3513 7.92861 11.7291 8.30639 11.7291 8.77236C11.7291 9.23834 11.3513 9.61611 10.8854 9.61611H1.78906C1.32308 9.61611 0.945313 9.23834 0.945313 8.77236Z" fill="url(#paint1_linear_1362_5030)"/>
        <path fill-rule="evenodd" clip-rule="evenodd" d="M8.11787 13.1376C7.78454 12.812 7.77824 12.2778 8.10392 11.9444L11.2031 8.77232L8.10392 5.60005C7.77824 5.26682 7.78454 4.73256 8.11787 4.40698C8.4511 4.0813 8.98536 4.08748 9.31094 4.42082L12.9862 8.1826C13.3065 8.51053 13.3065 9.03411 12.9862 9.36193L9.31094 13.1237C8.98536 13.457 8.4511 13.4633 8.11787 13.1376Z" fill="url(#paint2_linear_1362_5030)"/>
    </g>
    <defs>
        <linearGradient id="paint0_linear_1362_5030" x1="12.3641" y1="-9.10476e-07" x2="12.8141" y2="18" gradientUnits="userSpaceOnUse">
            <stop stop-color="#FFDE97"/>
            <stop offset="1" stop-color="#E7A343"/>
        </linearGradient>
        <linearGradient id="paint1_linear_1362_5030" x1="12.3641" y1="-9.10476e-07" x2="12.8141" y2="18" gradientUnits="userSpaceOnUse">
            <stop stop-color="#FFDE97"/>
            <stop offset="1" stop-color="#E7A343"/>
        </linearGradient>
        <linearGradient id="paint2_linear_1362_5030" x1="12.3641" y1="-9.10476e-07" x2="12.8141" y2="18" gradientUnits="userSpaceOnUse">
            <stop stop-color="#FFDE97"/>
            <stop offset="1" stop-color="#E7A343"/>
        </linearGradient>
        <clipPath id="clip0_1362_5030">
            <rect width="18" height="18" fill="white" transform="matrix(0 -1 1 0 0.664062 18)"/>
        </clipPath>
    </defs>
</svg>
