<svg width="31" height="30" viewBox="0 0 31 30" fill="none" xmlns="http://www.w3.org/2000/svg">
    <g clip-path="url(#clip0_679_9975)">
        <path d="M14.4816 0.0138037C14.9407 -0.00460123 15.4653 -0.00460123 15.9243 0.0138037C24.2053 0.329316 30.5636 7.57559 30.1544 15.8262C29.7793 23.4038 23.4945 29.7009 15.9243 29.9875C15.4653 30.0059 14.9407 30.0059 14.4816 29.9875C7.61181 29.7009 1.7309 24.6054 0.471824 17.8403C0.361655 17.2487 0.343294 16.6361 0.188533 16.0524C0.227879 15.3661 0.136072 14.6273 0.188533 13.9489C0.783969 6.40556 6.91407 0.331946 14.4816 0.0138037ZM14.702 22.0129C14.9538 22.2575 15.5282 22.2496 15.7171 21.9262L21.1599 12.5291C21.6688 11.183 20.8635 9.91827 19.434 9.87358C16.6509 10.0497 13.595 9.64746 10.8434 9.87621C9.55025 9.98401 8.71612 11.0594 9.1804 12.3319L14.702 22.0129Z" fill="#0088CB"/>
        <path d="M14.7021 22.0113L9.18056 12.3304C8.71628 11.0578 9.55041 9.98242 10.8436 9.87462C13.5952 9.64324 16.6484 10.0455 19.4341 9.87199C20.8637 9.91669 21.669 11.1814 21.1601 12.5276L15.7172 21.9246C15.5258 22.2453 14.9513 22.2532 14.7021 22.0113ZM14.4818 11.2524H10.6469C10.4947 11.2524 10.3137 11.7493 10.4527 11.907L14.4818 18.8772V11.2524ZM15.8589 18.943C15.9402 18.9377 15.9664 18.8483 16.0032 18.7905C17.3934 16.595 18.5843 14.184 19.9378 11.957C20.124 11.7914 19.8171 11.2524 19.6938 11.2524H15.8589V18.943Z" fill="#F8FBFD"/>
        <path d="M15.8594 18.9445V11.2539H19.6943C19.8176 11.2539 20.1245 11.7929 19.9382 11.9586C18.5847 14.1855 17.3939 16.5966 16.0036 18.792C15.9669 18.8499 15.9433 18.9393 15.8594 18.9445Z" fill="#0088CB"/>
        <path d="M14.4822 11.2539V18.8788L10.4532 11.9086C10.3115 11.7508 10.4951 11.2539 10.6473 11.2539H14.4822Z" fill="#0088CB"/>
    </g>
    <defs>
        <clipPath id="clip0_679_9975">
            <rect width="30" height="30" fill="white" transform="translate(0.171875)"/>
        </clipPath>
    </defs>
</svg>