<svg width="100%" height="100%" viewBox="0 0 19 18" fill="none" xmlns="http://www.w3.org/2000/svg">
<g clip-path="url(#clip0_1362_9312)">
<path fill-rule="evenodd" clip-rule="evenodd" d="M1.79297 12.3714C2.25896 12.3714 2.63672 12.7492 2.63672 13.2152V15.75C2.63672 15.9054 2.76264 16.0313 2.91797 16.0313H16.4179C16.5733 16.0313 16.6992 15.9054 16.6992 15.75V13.2152C16.6992 12.7492 17.077 12.3714 17.5429 12.3714C18.009 12.3714 18.3867 12.7492 18.3867 13.2152V15.75C18.3867 16.8373 17.5052 17.7188 16.4179 17.7188H2.91797C1.83066 17.7188 0.949219 16.8373 0.949219 15.75V13.2152C0.949219 12.7492 1.32698 12.3714 1.79297 12.3714Z" fill="url(#paint0_linear_1362_9312)"/>
<path fill-rule="evenodd" clip-rule="evenodd" d="M9.89561 12.5624C10.3616 12.5624 10.7394 12.1846 10.7394 11.7186V2.6223C10.7394 2.15633 10.3616 1.77855 9.89561 1.77855C9.42963 1.77855 9.05186 2.15633 9.05186 2.6223V11.7186C9.05186 12.1846 9.42963 12.5624 9.89561 12.5624Z" fill="url(#paint1_linear_1362_9312)"/>
<path fill-rule="evenodd" clip-rule="evenodd" d="M5.53036 5.38979C5.856 5.72313 6.3902 5.72943 6.72352 5.40374L9.89565 2.30459L13.0679 5.40374C13.4011 5.72943 13.9354 5.72313 14.261 5.38979C14.5867 5.05657 14.5805 4.5223 14.2471 4.19673L10.4854 0.521466C10.1574 0.201178 9.63386 0.201178 9.30604 0.521466L5.54426 4.19673C5.21093 4.5223 5.20471 5.05657 5.53036 5.38979Z" fill="url(#paint2_linear_1362_9312)"/>
</g>
<defs>
<linearGradient id="paint0_linear_1362_9312" x1="9.66795" y1="0.28125" x2="9.66795" y2="17.7188" gradientUnits="userSpaceOnUse">
<stop stop-color="#FFDE97"/>
<stop offset="1" stop-color="#E7A343"/>
</linearGradient>
<linearGradient id="paint1_linear_1362_9312" x1="9.66795" y1="0.28125" x2="9.66795" y2="17.7188" gradientUnits="userSpaceOnUse">
<stop stop-color="#FFDE97"/>
<stop offset="1" stop-color="#E7A343"/>
</linearGradient>
<linearGradient id="paint2_linear_1362_9312" x1="9.66795" y1="0.28125" x2="9.66795" y2="17.7188" gradientUnits="userSpaceOnUse">
<stop stop-color="#FFDE97"/>
<stop offset="1" stop-color="#E7A343"/>
</linearGradient>
<clipPath id="clip0_1362_9312">
<rect width="18" height="18" fill="white" transform="translate(0.667969)"/>
</clipPath>
</defs>
</svg>
