<svg width="auto" height="auto" viewBox="0 0 13 12" fill="" xmlns="http://www.w3.org/2000/svg">
<path d="M12.1571 0.626156L0.611226 5.08866C-0.16794 5.37199 -0.16794 5.86782 0.46956 6.00949L3.37373 6.93032L4.50706 10.3303C4.64873 10.6845 4.57789 10.8262 4.93206 10.8262C5.21539 10.8262 5.35706 10.6845 5.49873 10.5428C5.56956 10.472 6.20706 9.83449 6.91539 9.12615L9.89039 11.322C10.4571 11.6053 10.8112 11.4637 10.9529 10.8262L12.9362 1.54699C13.1487 0.767822 12.6529 0.342823 12.1571 0.626156ZM10.6696 2.75116L5.14456 7.78032L4.93206 10.1178L3.79873 6.71782L10.3154 2.60949C10.5987 2.39699 10.8821 2.53866 10.6696 2.75116Z" fill=""/>
<path d="M12.1571 0.626156L0.611226 5.08866C-0.16794 5.37199 -0.16794 5.86782 0.46956 6.00949L3.37373 6.93032L4.50706 10.3303C4.64873 10.6845 4.57789 10.8262 4.93206 10.8262C5.21539 10.8262 5.35706 10.6845 5.49873 10.5428C5.56956 10.472 6.20706 9.83449 6.91539 9.12615L9.89039 11.322C10.4571 11.6053 10.8112 11.4637 10.9529 10.8262L12.9362 1.54699C13.1487 0.767822 12.6529 0.342823 12.1571 0.626156ZM10.6696 2.75116L5.14456 7.78032L4.93206 10.1178L3.79873 6.71782L10.3154 2.60949C10.5987 2.39699 10.8821 2.53866 10.6696 2.75116Z" fill=""/>
<defs>
</defs>
</svg>
